<svg fill="none" height="42" viewBox="0 0 117 42" width="117" xmlns="http://www.w3.org/2000/svg"><g fill="#606266"><path d="m39.8308 30.4999c-.4673.4751-1.2463.7391-2.181.7391-.3116 0-.6232 0-.779-.0528-.1039 0-.1558 0-.2077-.0528v-5.5958h.2077c.2077 0 .4674-.0528.779-.0528.5193 0 .9347.0528 1.2982.2112s.6751.3695.8828.5807c.2078.2112.4155.5279.5193.8974.1039.3696.1558.7391.1558 1.1614.052.9503-.2077 1.6893-.6751 2.1644zm1.1425-5.3846c-.4154-.3695-.8828-.6863-1.454-.8974-.5713-.2112-1.1944-.3168-1.8695-.3168-.4674 0-.8829 0-1.1945 0-.3115 0-.5712.0528-.7789.1056s-.3635.2112-.4674.3167c-.1038.1584-.1558.3696-.1558.5807v7.7602h.1039s.0519 0 .6232.0528c.3635.0528.9347.0528 1.7137.0528.727 0 1.4021-.1056 1.9733-.3167.5713-.2112 1.0906-.5279 1.4541-.8975.4154-.3695.6751-.8974.8828-1.4253s.3116-1.1614.3116-1.8477c0-.6862-.1039-1.3197-.3116-1.8476-.1558-.4751-.4674-.9503-.8309-1.3198z"/><path d="m49.8537 24.0059c-.1039-.0528-.2597-.0528-.4155-.0528-.2596 0-.4154.0528-.5712.2112s-.2077.3695-.2077.6335v3.8537c0 .4751-.052.8446-.1039 1.2142-.0519.3167-.1558.5807-.3116.7918-.1558.2112-.3635.3696-.5712.4751-.2597.1056-.5713.1584-.9348.1584s-.6751-.0528-.9347-.1584c-.2597-.1055-.4155-.2639-.5713-.4751-.1558-.2111-.2596-.4751-.3115-.7918-.052-.3168-.1039-.7391-.1039-1.2142v-4.4344l-.1558-.1056c-.0519-.0528-.1039-.0528-.2596-.1056-.1039-.0528-.2597-.0528-.4155-.0528-.2597 0-.4154.0528-.5712.2112s-.2078.3695-.2078.6335v3.9065c0 1.3197.3116 2.3755.8829 3.0618.5712.7391 1.454 1.0558 2.6484 1.0558 1.1425 0 2.0253-.3695 2.6485-1.0558.5712-.739.8828-1.7421.8828-3.0618v-4.5928l-.0519-.0528c-.1558 0-.2077 0-.3635-.0528z"/><path d="m56.0335 30.341c-.5712-.6862-1.2463-1.3725-1.9214-2.0588.1038-.1056.2596-.2639.4154-.4223.2077-.2112.4674-.4751.6751-.6863.2597-.2639.5193-.4751.727-.7391.2597-.2639.4674-.4751.6751-.6862.2078-.2112.4155-.3696.5194-.5279.1557-.1584.2596-.264.3115-.3168l.1039-.1056-.0519-.1055c-.052-.1056-.1558-.1584-.3116-.3168-.1558-.1056-.3635-.2111-.6232-.2111-.2596 0-.4154.0527-.6232.1583-.1557.1056-.3115.264-.5193.4223-.1558.1056-.3115.3168-.5712.5807-.2596.264-.5193.5279-.8309.8447-.3116.3167-.5712.5807-.8309.8974-.1558.1584-.3116.3168-.4674.4751v-3.1674l-.1038-.0528c-.0519 0-.1039-.0528-.2597-.1056-.1038-.0528-.2596-.0527-.4154-.0527-.2597 0-.4155.0527-.5712.2111-.1558.1584-.2597.3695-.2597.6335v7.9186h1.5579v-3.6954c.2597.2112.4674.4752.727.7391.3116.3167.6232.6863.9348 1.0558s.5712.6863.8828 1.003c.2597.3168.4674.6335.6751.8975l.0519.0528h1.9215l-.1558-.264c-.4674-.8446-1.0386-1.6365-1.6618-2.3756z"/><path d="m115.079 30.341c-.572-.6862-1.195-1.3725-1.87-2.0588.104-.1056.26-.2639.416-.4223.207-.2112.415-.4751.675-.6863.259-.2639.467-.4751.727-.7391.259-.2639.467-.4751.675-.6862.208-.2112.363-.3696.519-.5279.156-.1584.26-.264.26-.3168l.104-.1056-.052-.1055c-.052-.1056-.156-.1584-.312-.3168-.156-.1056-.363-.2111-.623-.2111-.208 0-.415.0527-.571.1583s-.312.264-.52.4223c-.155.1056-.311.3168-.571.5807-.259.264-.519.5279-.779.8447-.259.3167-.571.5807-.831.8974-.155.1584-.311.3168-.467.4751v-3.1674l-.104-.0528c-.052 0-.104-.0528-.208-.1056-.103-.0528-.259-.0527-.415-.0527-.26 0-.415.0527-.571.2111s-.208.3695-.208.6335v7.9186h1.506v-3.6954c.26.2112.467.4752.727.7391.312.3167.623.6863.935 1.0558.311.3695.571.6863.831 1.003.259.3168.467.6335.675.8975l.052.0528h1.869l-.156-.264c-.519-.8446-1.09-1.6365-1.713-2.3756z"/><path d="m64.7061 24.2173c-.1038-.0528-.2596-.0527-.4154-.0527-.2596 0-.4154.0527-.5712.2111s-.2078.3695-.2078.6335v2.5339h-3.5312v-3.1674l-.1039-.0528c-.0519 0-.1039-.0528-.2597-.1056-.1038-.0528-.2596-.0527-.4154-.0527-.2597 0-.4154.0527-.5712.2111s-.2597.3695-.2597.6335v7.9186h1.5579v-3.6954h3.5313v3.6954h1.5579v-8.5521l-.0519-.0528c-.0519-.0528-.1558-.0528-.2597-.1056z"/><path d="m68.8604 29.0747c.1039-.2639.1558-.5279.2597-.7919.1039-.3167.2596-.6862.3635-1.003.1039-.3167.2597-.6335.3635-.8974.052-.1584.1558-.3168.2077-.4751.052.1056.1039.2111.1558.3695.1039.264.2078.5807.3635.9502.1039.3696.2597.6863.3636 1.0558.1038.264.2077.528.2596.7919zm4.9854 2.6923c-.1558-.4223-.3116-.8974-.5193-1.4781-.2077-.5279-.4155-1.1086-.6232-1.7421s-.4674-1.2142-.6751-1.7421c-.2077-.5807-.4154-1.0558-.6232-1.5309-.2077-.4751-.3635-.7919-.4673-1.0558v-.0528s-.052-.0528-.1039-.1056-.1039-.0528-.2077-.1056c-.0519-.0528-.1558-.0528-.2597-.1056-.1038-.0527-.2077-.0527-.3116-.0527-.2596 0-.5193.0527-.727.2111s-.3635.3695-.4674.7391c-.2596.6863-.5193 1.3725-.7789 2.006-.2597.6863-.5193 1.3726-.779 2.0589-.2596.6862-.4674 1.3197-.727 1.9532-.2077.6335-.4155 1.2142-.6232 1.7949l-.0519.2111h1.6098l.052-.1055c.1038-.264.2077-.5807.3116-.9503.1038-.3695.2596-.739.4154-1.1614h3.4274c.052.1584.1039.3168.1558.4752.0519.2111.1558.4223.2077.6334.052.2112.1558.4224.2078.5807.0519.1584.1038.3168.1558.4224l.0519.1055h1.7137l-.0519-.2111c-.052-.0528-.1558-.3696-.3116-.7919z"/><path d="m97.0589 29.0747c.1039-.2639.1558-.5279.2597-.7919.1038-.3167.2596-.6862.3635-1.003.1039-.3167.2597-.6335.3635-.8974.0519-.1584.1558-.3168.2077-.4751.052.1056.1039.2111.1558.3695.1039.264.2077.5807.3635.9502.1039.3696.2597.6863.3636 1.0558.1038.264.2077.528.2596.7919zm4.9851 2.6923c-.156-.4223-.311-.8974-.519-1.4781-.208-.5279-.415-1.1086-.623-1.7421s-.468-1.2142-.675-1.7421c-.208-.5807-.4157-1.0558-.6235-1.5309-.2077-.4751-.3635-.7919-.4673-1.0558v-.0528s-.052-.0528-.1039-.1056-.1039-.0528-.2077-.1056c-.052-.0528-.1558-.0528-.2597-.1056-.1038-.0527-.2077-.0527-.3116-.0527-.2596 0-.5193.0527-.727.2111s-.3635.3695-.4674.7391c-.2596.6863-.5193 1.3725-.7789 2.006-.2597.6863-.5193 1.3726-.779 2.0589-.2596.6862-.4674 1.3197-.727 1.9532-.2077.6335-.4155 1.2142-.6232 1.7949l-.0519.2111h1.6098l.052-.1055c.1038-.264.2077-.5807.3115-.9503.1039-.3695.2597-.739.4155-1.1614h3.4274c.0519.1584.1039.3168.1559.4752.052.2111.156.4223.208.6334.052.2112.155.4224.207.5807.052.1584.104.3168.156.4224l.052.1055h1.714l-.052-.2111c-.052-.0528-.156-.3696-.312-.7919z"/><path d="m81.5313 24.2173c-.1039-.0528-.2597-.0527-.4155-.0527-.2596 0-.4154.0527-.5712.2111s-.2077.3695-.2077.6335v4.9095c-.1039-.1584-.2078-.3695-.3116-.5279-.2077-.3695-.4155-.7391-.6751-1.1614-.2077-.3695-.4674-.739-.6751-1.1086l-.0519-.0528c-.2597-.4223-.4674-.7918-.6751-1.1086-.2078-.3167-.4155-.6335-.5713-.8974-.1558-.264-.2596-.4223-.3635-.5279l-.0519-.0528c-.052-.0528-.1558-.1056-.3116-.1584-.1558-.1056-.3116-.1056-.5712-.1056-.2597 0-.4674.0528-.6232.2112-.2077.1584-.3116.4223-.3116.7391v7.813h1.5579v-6.1237c.1039.2111.2597.3695.3635.5807.2078.3695.4674.739.6751 1.1614.2597.4223.4674.7918.7271 1.2141.2596.4224.4673.7919.6751 1.1614.2077.3696.4154.7391.6231 1.0558.1558.3168.3116.5807.4674.7919l.0519.0528h1.506v-8.4993l-.0519-.0528c0-.0528-.1039-.0528-.2077-.1056z"/><path d="m109.211 24.2173c-.104-.0528-.26-.0527-.416-.0527-.259 0-.415.0527-.571.2111s-.208.3695-.208.6335v4.9095c-.104-.1584-.207-.3695-.311-.5279-.208-.3695-.416-.7391-.675-1.1614-.208-.3695-.468-.739-.676-1.1086l-.051-.0528c-.26-.4223-.468-.7918-.676-1.1086-.207-.3167-.415-.6335-.571-.8974-.156-.264-.259-.4223-.363-.5279v-.0528c-.052-.0528-.156-.1056-.26-.1584-.156-.1056-.312-.1056-.519-.1056-.208 0-.416.0528-.623.2112-.208.1584-.312.4223-.312.7391v7.813h1.506v-6.1237c.104.2111.26.3695.364.5807.207.3695.467.739.675 1.1614.207.4223.467.7918.675 1.2141.207.4224.467.7919.675 1.1614.208.3696.415.7391.571 1.0558.156.3168.312.5807.467.7919l.052.0528h1.454v-8.4993l-.052-.0528c.052-.0528 0-.0528-.155-.1056z"/><path d="m92.5926 30.6583c-.0519.1056-.1558.264-.2597.3167-.1038.1056-.3115.1584-.5193.2112-.2077.0528-.4673.0528-.8309.0528-.4154 0-1.454 0-1.6617-.0528-.1558 0-.2597-.0528-.3116-.0528v-2.1644h2.4926c.2078 0 .4155.0528.5713.1056s.2596.1584.3635.2112c.1039.1055.1558.2111.1558.3167.0519.1056.0519.2639.0519.4223.052.3696 0 .5279-.0519.6335zm-3.5832-5.1207c.0519 0 .1558 0 .3116-.0528.2077 0 1.2463-.0528 1.6098-.0528.3116 0 .5193.0528.727.1056.2078.0528.3636.1584.4674.2112.1039.1056.1558.2112.2077.3167.052.1584.052.264.052.4224 0 .1583 0 .2639-.052.4223-.0519.1056-.1038.2111-.1558.3167-.1038.1056-.2077.1584-.3115.2112-.1558.0528-.3116.1056-.5193.1056h-2.3889v-2.0061zm4.1025 2.6923c.0519-.0527.0519-.0527.1039-.1055.1038-.1056.2077-.264.3115-.4224.1039-.1583.1558-.3695.2078-.5807.0519-.2111.1038-.4751.1038-.739 0-.3168-.0519-.6335-.1038-.9503-.1039-.3167-.2597-.5806-.4674-.7918s-.5193-.4223-.9348-.5279c-.3635-.1584-.8828-.2112-1.454-.2112-.5193 0-1.6618 0-1.9734.0528-.2596 0-.4674.0528-.6232.1056-.1557.0528-.3115.1056-.4154.2639-.1039.1584-.2077.3696-.2077.6863v7.813h.1038.2597c.1558 0 .3116.0528.5193.0528s.4674 0 .727.0528h1.6099c.6231 0 1.1425-.0528 1.5579-.2112.4154-.1055.727-.3167.9867-.5807.2596-.2639.4154-.5279.5193-.8446.1038-.3168.1039-.6863.1039-1.003 0-.5279-.1039-1.003-.3116-1.3726-.1558-.3167-.3635-.5279-.6232-.6863z"/><path d="m41.9085 10.9689c-.2597 0-.4674.0528-.5712.1584-.1558.1056-.2078.3167-.2078.5807v2.1644c0 .5279-.0519.6863-.1558 1.1086-.1038.3695-.2596.6863-.4673.9502-.2078.264-.4674.4223-.7271.5279-.2596.1056-.5712.1584-.9347.1584-.727 0-1.2983-.264-1.6618-.7391s-.5712-1.1086-.5712-1.9532c0-.264 0-.2112.0519-.5807.0519-.3168.1039-.6863.2077-1.1086-.0519-.0528-.1558-.1056-.3116-.1584s-.3116-.1056-.4673-.1056c-.1558 0-.3116.0528-.4155.1056s-.2596.1584-.3635.3168c-.1039.1583-.1558.4223-.2077.6862-.052.3168-.1039.3696-.1039.8447 0 .6335.1039 1.1614.2597 1.6365s.4154.8974.727 1.267c.3116.3695.727.6334 1.1425.7918.4673.2112.9866.264 1.6098.264s1.1944-.1056 1.6618-.3168c.4674-.2111.8828-.4751 1.1944-.8446.3116-.3696.5712-.7919.727-1.3198s.2597-.7918.2597-1.4253v-3.0619c-.0519 0-.1558-.0528-.2597-.1056-.0519.2112-.2077.1584-.4154.1584z"/><path d="m38.8966 10.8099c.2078 0 .4155-.1056.5713-.264.1558-.1583.2596-.3695.2596-.58065 0-.21116-.1038-.42232-.2596-.58069s-.3635-.26395-.5713-.26395c-.2077 0-.4154.10558-.5712.26395s-.2077.36953-.2077.58069c0 .21115.0519.42235.2077.58065.1558.1584.3635.264.5712.264z"/><path d="m71.7683 14.5044c-.2077-.2639-.4155-.5279-.6232-.7918-.2077-.2112-.4154-.4223-.6231-.6335-.2078-.2112-.4155-.3695-.6751-.5279-.2597-.1584-.5194-.264-.779-.3695-.2597-.1056-.5712-.1056-.9348-.1056-.4154 0-.727.0528-.9347.2111-.2597.1056-.3635.3168-.3635.5807 0 .2112.0519.3696.1038.4752.1039.1055.1558.2111.2078.2639.2596-.1056.5193-.1584.7789-.1584.3635 0 .6751.1056 1.0386.264.3116.2112.6751.4751 1.0906.9502.2077.2112.4154.5279.6751.8975.2596.3695.5712.6334.8828 1.1613h-4.9853-.4155-4.9334-3.2197-4.9334-.4155-4.9334-.4154-2.0253v-7.39062c-.052 0-.1558-.05279-.2597-.10558-.1558-.05279-.2596-.05279-.4674-.05279-.2596 0-.4154.05279-.5712.15837s-.2077.31674-.2077.58069v8.18253h3.5313.4154 4.9334.4155 4.9334 3.2197 4.9334.4155 6.7509v-1.3198z"/><path d="m68.3411 10.8099c.2077 0 .4154-.1056.5712-.264.1558-.1583.2597-.3695.2597-.58065 0-.21116-.1039-.42232-.2597-.58069s-.3635-.26395-.5712-.26395-.4155.10558-.6232.26395c-.1558.15837-.2596.36953-.2596.58069 0 .21115.1038.42235.2596.58065.1558.1584.3635.264.6232.264z"/><path d="m81.843 16.2478c0-.6863-.1039-1.267-.3635-1.7949-.2078-.5279-.5193-.9502-.9348-1.267-.4154-.3167-.8309-.5807-1.4021-.7918-.5193-.1584-1.0906-.264-1.7137-.264-.2077 0-.4674 0-.7271.0528-.2596.0528-.4673.0528-.727.1584-.2077.0528-.4154.1584-.5193.2639-.1558.1056-.2077.264-.2077.4752 0 .1583.0519.3167.1558.4751.1038.1583.1558.2111.2596.3167.1039-.0528.3116-.1584.6232-.2111.3116-.0528.6232-.1056.9867-.1056s.727.0528 1.0905.1583c.3635.1056.6751.264.9348.4752.2596.2111.5193.5279.6751.8974s.2596.8446.2596 1.3725v.3696h-5.7123v1.3197h7.2702v-1.9004z"/><path d="m94.2026 12.4471h-.7271c-.1558 0-.3115-.0528-.4673-.1056-.1558-.1056-.2078-.2112-.2078-.4224 0-.1055.052-.2111.1558-.3167.1039-.0528.2077-.1056.3635-.1056s.2597.0528.3636.1056c.1038.0528.1557.1056.2077.1056.1038-.1056.1558-.1584.2077-.2112s.0519-.1583.0519-.2111c0-.1584-.1038-.3168-.3116-.3696-.2077-.0528-.4154-.1056-.6231-.1056-.3116 0-.6232.1056-.8309.264-.2597.1584-.3635.4223-.3635.7919 0 .1583.0519.2639.1038.3695.052.1056.1039.1584.1558.2112h-.6231v.739h2.5965v-.739z"/><path d="m103.706 16.6696c.311 0 .623-.0527.831-.1055.207-.0528.363-.1584.467-.3168.104-.1583.156-.3167.208-.5807.052-.2111.052-.4751.052-.7918v-2.1117c0-.4751.259-.739.779-.739.156 0 .311 0 .467.0528s.208.0528.26.1056v2.6395c0 .3167 0 .5807.052.7918.052.2112.104.4224.207.5807.104.1584.26.264.468.3168.207.0528.467.1056.831.1056h.259.416 4.466.311 1.714v-3.9065c0-.4752.26-.7391.779-.7391.156 0 .312 0 .467.0528.156.0528.208.0528.26.1056v5.8069h-3.272-.311-4.466-.416-.934c-.779 0-1.299-.3167-1.662-.8974-.104.2111-.26.4223-.468.5279-.155.1056-.363.2111-.571.2639-.207.0528-.467.1056-.675.1056-.26 0-.519 0-.727 0h-3.9466-7.7377c-.779 0-1.3502-.1056-1.8176-.2639-.4673-.1584-.9347-.4224-1.2463-.6863-.3635-.3168-.6232-.6863-.779-1.0558-.2077-.4223-.2596-.8447-.2596-1.3726 0-.4223.0519-.739.2077-1.003.1039-.2639.3635-.4223.727-.4223.1558 0 .2597 0 .4155.0528.1038.0528.2596.0528.3635.1056-.0519.2111-.1039.4223-.1039.6334 0 .2112-.0519.3696-.0519.5279 0 .6863.2597 1.2142.727 1.5838.4674.3695 1.1944.5807 2.1292.5807h4.466v-6.75723c0-.26395.052-.42232.2078-.58069.1557-.10558.3115-.15837.5712-.15837.1558 0 .3116 0 .4674.05279s.2077.05279.2596.10558v7.39062"/><path d="m105.991 10.8099c.207 0 .415-.1056.571-.264.156-.1583.26-.3695.26-.58065 0-.21116-.104-.42232-.26-.58069s-.364-.26395-.571-.26395c-.208 0-.416.10558-.572.26395-.155.15837-.207.36953-.207.58069 0 .21115.104.42235.207.58065.156.1584.312.264.572.264z"/><path d="m114.819 19.2561c-.156.1584-.259.3696-.259.5807 0 .2112.103.4224.259.5807.156.1584.364.264.571.264.208 0 .416-.1056.572-.264.155-.1583.259-.3695.259-.5807 0-.2111-.104-.4223-.259-.5807-.156-.1583-.364-.2639-.572-.2639-.207 0-.415.1056-.571.2639z"/></g><path d="m29.237 15.8264c0-8.60482-6.9587-15.625961-15.5792-15.625961h-10.9574c-1.50599 0-2.7004 1.214181-2.7004 2.745101v10.29416c0-1.5309 1.19441-2.7451 2.7004-2.7451h10.9574c6.8029 0 12.5672 4.3816 14.6963 10.5053.5713-1.6365.8829-3.3258.8829-5.1735z" fill="#3e97c8"/><path d="m13.6578 31.5053h-10.9574c-1.50599 0-2.7004-1.2142-2.7004-2.7451v10.2941c0 1.531 1.19441 2.7452 2.7004 2.7452h10.9574c8.6205 0 15.5792-7.0212 15.5792-15.626 0-1.7949-.3116-3.537-.8829-5.1735-2.1291 6.1237-7.8934 10.5053-14.6963 10.5053z" fill="#43b649"/><path d="m13.6578 10.4946h-10.9574c-1.50599 0-2.7004 1.2142-2.7004 2.7451v15.5204c0 1.531 1.19441 2.7451 2.7004 2.7451h10.9574c6.8029 0 12.5672-4.3816 14.6963-10.5053-2.1291-6.1237-7.8934-10.5053-14.6963-10.5053z" fill="#203c6f"/></svg>